<svg width="91" height="66" viewBox="0 0 91 66" fill="none" xmlns="http://www.w3.org/2000/svg">
<path d="M15 11.05C19.3298 22.4409 27.4051 27.8079 32.6653 27.6833M25.9028 2C35.7953 12.5586 38.5281 20.0093 37.499 24.0765M18.3122 8.03333L29.215 22.5682M21.9005 5.01667L33.2173 19.6886M32.6653 27.6833L54.3329 61.922C55.851 64.253 59.5773 66.5841 63.0275 63.5674C64.2822 62.4704 67.5819 59.3166 65.0977 55.8886L37.499 24.0765M32.6653 27.6833C35.0853 27.626 36.9094 26.4065 37.499 24.0765" stroke="url(#paint0_linear_227_2)" stroke-width="2" stroke-linecap="round" stroke-linejoin="round"/>
<path d="M25.1828 62.8639C17.2692 57.7856 39.9363 34.1824 48.9691 25.5161L52.052 27.1359C43.2414 44.7318 32.8353 67.7747 25.1828 62.8639Z" stroke="url(#paint1_linear_227_2)" stroke-width="3" stroke-linecap="round" stroke-linejoin="round"/>
<path d="M62.8335 19.9254C60.7486 22.8542 58.1951 24.9421 55.8192 25.9912C53.4091 27.0555 51.4577 26.9566 50.2124 26.0701C48.967 25.1836 48.2348 23.372 48.4514 20.7464C48.665 18.1579 49.802 15.0616 51.8869 12.1328C53.9718 9.20409 56.5252 7.11614 58.9012 6.067C61.3113 5.00279 63.2627 5.10165 64.508 5.98817C65.7534 6.87469 66.4856 8.68622 66.269 11.3119C66.0554 13.9004 64.9184 16.9966 62.8335 19.9254Z" stroke="url(#paint2_linear_227_2)" stroke-width="3"/>
<path d="M0.494 42.325C0.476667 42.2903 0.463667 42.234 0.455 42.156C0.455 42.078 0.455 42 0.455 41.922C0.455 41.844 0.455 41.7703 0.455 41.701C0.463667 41.6317 0.476667 41.5883 0.494 41.571C0.502667 41.5623 0.528667 41.5493 0.572 41.532C0.624 41.506 0.680333 41.4843 0.741 41.467C0.801667 41.4497 0.862333 41.4323 0.923 41.415C0.983667 41.3977 1.03567 41.3847 1.079 41.376C1.14833 41.3587 1.20033 41.3413 1.235 41.324C1.27833 41.298 1.30433 41.2633 1.313 41.22C1.32167 41.1333 1.326 41.0337 1.326 40.921C1.33467 40.8083 1.339 40.6957 1.339 40.583C1.34767 40.4703 1.352 40.362 1.352 40.258C1.352 40.1453 1.352 40.05 1.352 39.972V34.447C1.12667 34.4037 0.923 34.3603 0.741 34.317C0.567667 34.265 0.481 34.2303 0.481 34.213C0.481 34.187 0.481 34.1393 0.481 34.07C0.481 34.0007 0.485333 33.9313 0.494 33.862C0.502667 33.784 0.511333 33.7103 0.52 33.641C0.528667 33.5717 0.541667 33.5197 0.559 33.485H3.64C3.64867 33.5197 3.65733 33.576 3.666 33.654C3.67467 33.732 3.679 33.81 3.679 33.888C3.679 33.966 3.67467 34.0397 3.666 34.109C3.666 34.1783 3.65733 34.2217 3.64 34.239C3.63133 34.2563 3.601 34.2737 3.549 34.291C3.50567 34.3083 3.45367 34.3257 3.393 34.343C3.33233 34.3603 3.27167 34.3777 3.211 34.395C3.15033 34.4123 3.09833 34.4253 3.055 34.434C2.98567 34.4513 2.92933 34.473 2.886 34.499C2.85133 34.5163 2.82967 34.5467 2.821 34.59C2.81233 34.6767 2.80367 34.7763 2.795 34.889C2.795 35.0017 2.79067 35.1143 2.782 35.227C2.782 35.3397 2.782 35.4523 2.782 35.565C2.782 35.669 2.782 35.76 2.782 35.838V41.363C3.00733 41.4063 3.20667 41.454 3.38 41.506C3.562 41.5493 3.653 41.5797 3.653 41.597C3.653 41.623 3.653 41.6707 3.653 41.74C3.653 41.8093 3.64867 41.883 3.64 41.961C3.63133 42.0303 3.62267 42.0997 3.614 42.169C3.60533 42.2383 3.59233 42.2903 3.575 42.325H0.494ZM7.44067 42.585C7.00734 42.585 6.59567 42.5503 6.20567 42.481C5.82434 42.4117 5.49501 42.3423 5.21767 42.273L4.55467 42.052C4.51134 42.0347 4.48534 42.0173 4.47667 42C4.46801 41.9827 4.46367 41.9523 4.46367 41.909V39.647C4.55034 39.621 4.67167 39.608 4.82767 39.608C4.98367 39.608 5.10934 39.621 5.20467 39.647L5.58167 40.661C5.70301 40.9817 5.93267 41.2243 6.27067 41.389C6.61734 41.5537 7.03767 41.636 7.53167 41.636C7.86967 41.636 8.15567 41.6013 8.38967 41.532C8.62367 41.454 8.81434 41.35 8.96167 41.22C9.11767 41.09 9.22601 40.9383 9.28667 40.765C9.35601 40.583 9.39067 40.388 9.39067 40.18C9.39067 39.946 9.34734 39.7467 9.26067 39.582C9.18267 39.4173 9.07867 39.283 8.94867 39.179C8.81867 39.0663 8.67567 38.9753 8.51967 38.906C8.36367 38.828 8.20767 38.7587 8.05167 38.698L6.72567 38.191C6.43967 38.0783 6.16234 37.944 5.89367 37.788C5.63367 37.6233 5.40401 37.437 5.20467 37.229C5.00534 37.021 4.84501 36.787 4.72367 36.527C4.61101 36.2583 4.55467 35.968 4.55467 35.656C4.55467 35.3613 4.60667 35.071 4.71067 34.785C4.82334 34.4903 5.00101 34.2303 5.24367 34.005C5.48634 33.771 5.79834 33.5847 6.17967 33.446C6.56101 33.2987 7.02034 33.225 7.55767 33.225C7.90434 33.225 8.24667 33.2553 8.58467 33.316C8.93134 33.3767 9.26934 33.459 9.59867 33.563L10.3397 33.875C10.4003 33.901 10.4307 33.9443 10.4307 34.005V35.955C10.4047 35.9637 10.357 35.9723 10.2877 35.981C10.227 35.981 10.1577 35.981 10.0797 35.981C10.0017 35.981 9.92801 35.981 9.85867 35.981C9.78934 35.9723 9.73301 35.9637 9.68967 35.955L9.35167 35.058C9.26501 34.824 9.07001 34.6247 8.76667 34.46C8.46334 34.2953 8.06901 34.213 7.58367 34.213C7.27167 34.213 7.01167 34.252 6.80367 34.33C6.59567 34.3993 6.42667 34.4947 6.29667 34.616C6.17534 34.7287 6.08867 34.863 6.03667 35.019C5.98467 35.1663 5.95867 35.318 5.95867 35.474C5.95867 35.682 5.99767 35.864 6.07567 36.02C6.16234 36.1673 6.27067 36.2973 6.40067 36.41C6.53067 36.514 6.67367 36.605 6.82967 36.683C6.98567 36.7523 7.13734 36.813 7.28467 36.865L8.55867 37.346C9.29534 37.6233 9.85001 37.9613 10.2227 38.36C10.604 38.7587 10.7947 39.27 10.7947 39.894C10.7947 40.2667 10.7253 40.6177 10.5867 40.947C10.4567 41.2677 10.253 41.5493 9.97567 41.792C9.69834 42.0347 9.34734 42.2253 8.92267 42.364C8.50667 42.5113 8.01267 42.585 7.44067 42.585ZM18.5701 35.539C18.5008 35.5737 18.3881 35.6083 18.2321 35.643C18.0848 35.669 17.9678 35.682 17.8811 35.682C17.8638 35.682 17.8334 35.6387 17.7901 35.552C17.7554 35.4653 17.7121 35.3613 17.6601 35.24C17.6168 35.11 17.5691 34.9757 17.5171 34.837C17.4738 34.6897 17.4348 34.5597 17.4001 34.447H14.9301L13.9031 34.382V37.411H16.3861C16.4294 37.1857 16.4728 36.9863 16.5161 36.813C16.5681 36.631 16.6028 36.54 16.6201 36.54C16.6461 36.54 16.6938 36.54 16.7631 36.54C16.8411 36.54 16.9191 36.5443 16.9971 36.553C17.0838 36.5617 17.1618 36.5703 17.2311 36.579C17.3091 36.5877 17.3654 36.6007 17.4001 36.618V39.179C17.3654 39.1963 17.3048 39.2093 17.2181 39.218C17.1401 39.218 17.0578 39.218 16.9711 39.218C16.8844 39.218 16.8021 39.218 16.7241 39.218C16.6548 39.2093 16.6114 39.1963 16.5941 39.179C16.5768 39.1703 16.5594 39.1443 16.5421 39.101C16.5248 39.049 16.5074 38.9927 16.4901 38.932C16.4728 38.8713 16.4554 38.8107 16.4381 38.75C16.4208 38.6893 16.4078 38.6373 16.3991 38.594C16.3818 38.5247 16.3601 38.4727 16.3341 38.438C16.3168 38.3947 16.2864 38.3687 16.2431 38.36C16.0698 38.3427 15.8704 38.334 15.6451 38.334C15.4284 38.3253 15.2421 38.321 15.0861 38.321H13.9031V41.363C14.0244 41.3803 14.1501 41.402 14.2801 41.428C14.4101 41.454 14.5271 41.48 14.6311 41.506C14.7351 41.5233 14.8218 41.545 14.8911 41.571C14.9604 41.5883 14.9951 41.6013 14.9951 41.61C14.9951 41.636 14.9951 41.6837 14.9951 41.753C14.9951 41.8137 14.9908 41.883 14.9821 41.961C14.9734 42.0303 14.9648 42.0997 14.9561 42.169C14.9474 42.2383 14.9344 42.2903 14.9171 42.325H11.6151C11.5978 42.2903 11.5848 42.234 11.5761 42.156C11.5761 42.078 11.5761 42 11.5761 41.922C11.5761 41.844 11.5761 41.7703 11.5761 41.701C11.5848 41.6317 11.5978 41.5883 11.6151 41.571C11.6238 41.5623 11.6498 41.5493 11.6931 41.532C11.7451 41.506 11.8014 41.4843 11.8621 41.467C11.9228 41.4497 11.9834 41.4323 12.0441 41.415C12.1048 41.3977 12.1568 41.3847 12.2001 41.376C12.2694 41.3587 12.3214 41.3413 12.3561 41.324C12.3994 41.298 12.4254 41.2633 12.4341 41.22C12.4514 41.0467 12.4601 40.8343 12.4601 40.583C12.4688 40.323 12.4731 40.102 12.4731 39.92V34.447C12.2478 34.4037 12.0441 34.3603 11.8621 34.317C11.6888 34.265 11.6021 34.2303 11.6021 34.213C11.6021 34.187 11.6021 34.1393 11.6021 34.07C11.6021 34.0007 11.6064 33.9313 11.6151 33.862C11.6238 33.784 11.6324 33.7103 11.6411 33.641C11.6498 33.5717 11.6628 33.5197 11.6801 33.485H17.7641C17.8854 33.485 18.0068 33.4807 18.1281 33.472C18.2494 33.4547 18.3578 33.4373 18.4531 33.42L18.5701 35.539ZM25.1176 33.927C25.473 34.1177 25.7546 34.369 25.9626 34.681C26.1706 34.9843 26.2746 35.4047 26.2746 35.942C26.2746 36.566 26.1403 37.086 25.8716 37.502C25.6116 37.9093 25.2476 38.2257 24.7796 38.451C24.5803 38.5463 24.368 38.6243 24.1426 38.685C23.926 38.7457 23.705 38.7933 23.4796 38.828C23.263 38.854 23.0506 38.8713 22.8426 38.88C22.6433 38.8887 22.4613 38.893 22.2966 38.893C22.2013 38.893 22.1016 38.893 21.9976 38.893C21.8936 38.893 21.7853 38.8843 21.6726 38.867V41.363C21.794 41.3803 21.9196 41.402 22.0496 41.428C22.1796 41.454 22.2966 41.48 22.4006 41.506C22.5046 41.5233 22.5913 41.545 22.6606 41.571C22.73 41.5883 22.7646 41.6013 22.7646 41.61C22.7646 41.636 22.7646 41.6837 22.7646 41.753C22.7646 41.8137 22.7603 41.883 22.7516 41.961C22.743 42.0303 22.7343 42.0997 22.7256 42.169C22.717 42.2383 22.704 42.2903 22.6866 42.325H19.3846C19.3673 42.2903 19.3543 42.234 19.3456 42.156C19.3456 42.078 19.3456 42 19.3456 41.922C19.3456 41.844 19.3456 41.7703 19.3456 41.701C19.3543 41.6317 19.3673 41.5883 19.3846 41.571C19.3933 41.5623 19.4193 41.5493 19.4626 41.532C19.5146 41.506 19.571 41.4843 19.6316 41.467C19.6923 41.4497 19.753 41.4323 19.8136 41.415C19.8743 41.3977 19.9263 41.3847 19.9696 41.376C20.039 41.3587 20.091 41.3413 20.1256 41.324C20.169 41.298 20.195 41.2633 20.2036 41.22C20.2123 41.1333 20.2166 41.0337 20.2166 40.921C20.2253 40.8083 20.2296 40.6957 20.2296 40.583C20.2383 40.4703 20.2426 40.362 20.2426 40.258C20.2426 40.1453 20.2426 40.05 20.2426 39.972V34.447C20.0173 34.4037 19.8136 34.3603 19.6316 34.317C19.4583 34.265 19.3716 34.2303 19.3716 34.213C19.3716 34.187 19.3716 34.1393 19.3716 34.07C19.3716 34.0007 19.376 33.9313 19.3846 33.862C19.3933 33.784 19.402 33.7103 19.4106 33.641C19.4193 33.5717 19.4323 33.5197 19.4496 33.485H22.4136C22.7256 33.485 23.003 33.4893 23.2456 33.498C23.497 33.5067 23.7266 33.524 23.9346 33.55C24.1513 33.576 24.3506 33.6193 24.5326 33.68C24.7233 33.7407 24.9183 33.823 25.1176 33.927ZM21.6726 37.957C21.794 37.9657 21.9196 37.9743 22.0496 37.983C22.1883 37.983 22.3183 37.983 22.4396 37.983C22.6823 37.983 22.8946 37.9743 23.0766 37.957C23.2586 37.9397 23.4146 37.918 23.5446 37.892C23.6833 37.8573 23.8003 37.8183 23.8956 37.775C23.991 37.7317 24.082 37.684 24.1686 37.632C24.342 37.5193 24.4936 37.3547 24.6236 37.138C24.7536 36.9213 24.8186 36.5877 24.8186 36.137C24.8186 35.799 24.771 35.5303 24.6756 35.331C24.5803 35.1317 24.4633 34.9757 24.3246 34.863C24.1513 34.7243 23.9173 34.6247 23.6226 34.564C23.3366 34.5033 23.0333 34.473 22.7126 34.473H21.6726V37.957Z" fill="white"/>
<path d="M65.539 40.076C65.617 40.076 65.7123 40.0933 65.825 40.128C65.9463 40.154 66.0373 40.1843 66.098 40.219L65.968 42.728C65.7947 42.728 65.5953 42.715 65.37 42.689C65.1533 42.663 64.9887 42.6283 64.876 42.585H59.39V41.584C59.7107 41.3153 60.0053 41.064 60.274 40.83C60.5427 40.596 60.7983 40.375 61.041 40.167C61.2837 39.9503 61.5177 39.7467 61.743 39.556C61.9683 39.3567 62.198 39.1573 62.432 38.958C62.6747 38.7413 62.9043 38.5203 63.121 38.295C63.3463 38.061 63.5413 37.8183 63.706 37.567C63.8793 37.307 64.0137 37.0427 64.109 36.774C64.2043 36.4967 64.252 36.2107 64.252 35.916C64.252 35.396 64.1133 34.98 63.836 34.668C63.5587 34.356 63.1167 34.2 62.51 34.2C62.2847 34.2 62.0767 34.2217 61.886 34.265C61.704 34.2997 61.5653 34.3473 61.47 34.408C61.4093 34.5727 61.3703 34.7633 61.353 34.98C61.3443 35.1967 61.34 35.3917 61.34 35.565L61.301 35.669C61.2143 35.7383 61.0973 35.799 60.95 35.851C60.8113 35.8943 60.6423 35.916 60.443 35.916C60.1397 35.916 59.9273 35.8467 59.806 35.708C59.6933 35.5693 59.637 35.4003 59.637 35.201C59.637 34.9583 59.7063 34.7373 59.845 34.538C59.9923 34.3387 60.1613 34.1653 60.352 34.018C60.4473 33.94 60.573 33.8577 60.729 33.771C60.8937 33.6843 61.08 33.602 61.288 33.524C61.5047 33.446 61.7473 33.381 62.016 33.329C62.2847 33.277 62.5793 33.251 62.9 33.251C63.7667 33.251 64.4513 33.4633 64.954 33.888C65.4567 34.304 65.708 34.9063 65.708 35.695C65.708 36.0677 65.6473 36.423 65.526 36.761C65.4133 37.0903 65.2573 37.4023 65.058 37.697C64.8673 37.9917 64.642 38.269 64.382 38.529C64.1307 38.789 63.8707 39.036 63.602 39.27C63.4633 39.3913 63.2943 39.5343 63.095 39.699C62.9043 39.8637 62.6963 40.0413 62.471 40.232C62.2457 40.414 62.0117 40.6047 61.769 40.804C61.535 40.9947 61.3097 41.1767 61.093 41.35L61.99 41.311H64.928C64.9713 41.181 65.0233 41.0423 65.084 40.895C65.1447 40.7477 65.201 40.6133 65.253 40.492C65.3137 40.3707 65.37 40.271 65.422 40.193C65.474 40.115 65.513 40.076 65.539 40.076ZM70.8924 42.845C70.3204 42.845 69.809 42.7323 69.3584 42.507C68.9077 42.2817 68.522 41.961 68.2014 41.545C67.8807 41.129 67.6337 40.6263 67.4604 40.037C67.2957 39.439 67.2134 38.7673 67.2134 38.022C67.2134 37.2853 67.2957 36.6223 67.4604 36.033C67.6337 35.435 67.8807 34.928 68.2014 34.512C68.522 34.096 68.9077 33.7797 69.3584 33.563C69.809 33.3377 70.3204 33.225 70.8924 33.225C71.4644 33.225 71.9757 33.3377 72.4264 33.563C72.877 33.7797 73.2584 34.096 73.5704 34.512C73.8824 34.928 74.1207 35.435 74.2854 36.033C74.4587 36.6223 74.5454 37.2853 74.5454 38.022C74.5454 38.7673 74.4587 39.439 74.2854 40.037C74.1207 40.6263 73.8824 41.129 73.5704 41.545C73.2584 41.961 72.877 42.2817 72.4264 42.507C71.9757 42.7323 71.4644 42.845 70.8924 42.845ZM68.6824 38.022C68.6824 39.2527 68.8817 40.193 69.2804 40.843C69.6877 41.4843 70.2207 41.805 70.8794 41.805C71.538 41.805 72.0667 41.4843 72.4654 40.843C72.8727 40.193 73.0764 39.2527 73.0764 38.022C73.0764 36.7913 72.8727 35.8597 72.4654 35.227C72.0667 34.5857 71.538 34.265 70.8794 34.265C70.2207 34.265 69.6877 34.5857 69.2804 35.227C68.8817 35.8597 68.6824 36.7913 68.6824 38.022ZM81.5986 40.076C81.6766 40.076 81.7719 40.0933 81.8846 40.128C82.0059 40.154 82.0969 40.1843 82.1576 40.219L82.0276 42.728C81.8542 42.728 81.6549 42.715 81.4296 42.689C81.2129 42.663 81.0482 42.6283 80.9356 42.585H75.4496V41.584C75.7702 41.3153 76.0649 41.064 76.3336 40.83C76.6022 40.596 76.8579 40.375 77.1006 40.167C77.3432 39.9503 77.5772 39.7467 77.8026 39.556C78.0279 39.3567 78.2576 39.1573 78.4916 38.958C78.7342 38.7413 78.9639 38.5203 79.1806 38.295C79.4059 38.061 79.6009 37.8183 79.7656 37.567C79.9389 37.307 80.0732 37.0427 80.1686 36.774C80.2639 36.4967 80.3116 36.2107 80.3116 35.916C80.3116 35.396 80.1729 34.98 79.8956 34.668C79.6182 34.356 79.1762 34.2 78.5696 34.2C78.3442 34.2 78.1362 34.2217 77.9456 34.265C77.7636 34.2997 77.6249 34.3473 77.5296 34.408C77.4689 34.5727 77.4299 34.7633 77.4126 34.98C77.4039 35.1967 77.3996 35.3917 77.3996 35.565L77.3606 35.669C77.2739 35.7383 77.1569 35.799 77.0096 35.851C76.8709 35.8943 76.7019 35.916 76.5026 35.916C76.1992 35.916 75.9869 35.8467 75.8656 35.708C75.7529 35.5693 75.6966 35.4003 75.6966 35.201C75.6966 34.9583 75.7659 34.7373 75.9046 34.538C76.0519 34.3387 76.2209 34.1653 76.4116 34.018C76.5069 33.94 76.6326 33.8577 76.7886 33.771C76.9532 33.6843 77.1396 33.602 77.3476 33.524C77.5642 33.446 77.8069 33.381 78.0756 33.329C78.3442 33.277 78.6389 33.251 78.9596 33.251C79.8262 33.251 80.5109 33.4633 81.0136 33.888C81.5162 34.304 81.7676 34.9063 81.7676 35.695C81.7676 36.0677 81.7069 36.423 81.5856 36.761C81.4729 37.0903 81.3169 37.4023 81.1176 37.697C80.9269 37.9917 80.7016 38.269 80.4416 38.529C80.1902 38.789 79.9302 39.036 79.6616 39.27C79.5229 39.3913 79.3539 39.5343 79.1546 39.699C78.9639 39.8637 78.7559 40.0413 78.5306 40.232C78.3052 40.414 78.0712 40.6047 77.8286 40.804C77.5946 40.9947 77.3692 41.1767 77.1526 41.35L78.0496 41.311H80.9876C81.0309 41.181 81.0829 41.0423 81.1436 40.895C81.2042 40.7477 81.2606 40.6133 81.3126 40.492C81.3732 40.3707 81.4296 40.271 81.4816 40.193C81.5336 40.115 81.5726 40.076 81.5986 40.076ZM88.4434 41.649C88.5127 41.6577 88.6124 41.675 88.7424 41.701C88.881 41.7183 89.0154 41.74 89.1454 41.766C89.2754 41.792 89.388 41.818 89.4834 41.844C89.5787 41.87 89.6264 41.8873 89.6264 41.896C89.6264 41.922 89.622 41.9653 89.6134 42.026C89.6134 42.0867 89.609 42.1517 89.6004 42.221C89.5917 42.299 89.5787 42.3683 89.5614 42.429C89.5527 42.4983 89.544 42.5503 89.5354 42.585H85.9474C85.9387 42.5503 85.93 42.494 85.9214 42.416C85.9127 42.338 85.9084 42.26 85.9084 42.182C85.9084 42.104 85.9084 42.0347 85.9084 41.974C85.917 41.9133 85.93 41.8743 85.9474 41.857C85.956 41.8483 85.9994 41.8353 86.0774 41.818C86.164 41.792 86.2594 41.766 86.3634 41.74C86.4674 41.714 86.567 41.6923 86.6624 41.675C86.7664 41.649 86.84 41.6317 86.8834 41.623C86.97 41.6057 87.0134 41.558 87.0134 41.48C87.022 41.298 87.0264 41.0813 87.0264 40.83C87.035 40.5787 87.0394 40.3707 87.0394 40.206V40.089H83.0224L82.5934 39.361L87.3904 33.251C87.4337 33.2597 87.503 33.2727 87.5984 33.29C87.6937 33.3073 87.7934 33.3247 87.8974 33.342C88.01 33.3507 88.114 33.3637 88.2094 33.381C88.3134 33.3897 88.3914 33.394 88.4434 33.394V39.023H90.1204C90.1464 39.049 90.1594 39.0837 90.1594 39.127C90.1594 39.2397 90.1377 39.3957 90.0944 39.595C90.0597 39.7943 90.012 39.959 89.9514 40.089H88.4434V41.649ZM87.0394 39.023V35.851C87.0394 35.7643 87.0394 35.6733 87.0394 35.578C87.0394 35.4827 87.0437 35.3787 87.0524 35.266L84.1274 39.023H87.0394Z" fill="white"/>
<defs>
<linearGradient id="paint0_linear_227_2" x1="40.5" y1="2" x2="40.5" y2="65" gradientUnits="userSpaceOnUse">
<stop stop-color="#FFDC9F"/>
<stop offset="1" stop-color="#644E28"/>
</linearGradient>
<linearGradient id="paint1_linear_227_2" x1="51" y1="26.5002" x2="26" y2="63.0002" gradientUnits="userSpaceOnUse">
<stop stop-color="#644E28"/>
<stop offset="1" stop-color="#FFDC9F"/>
</linearGradient>
<linearGradient id="paint2_linear_227_2" x1="65.3779" y1="4.76618" x2="49.3425" y2="27.2921" gradientUnits="userSpaceOnUse">
<stop stop-color="#FFDC9F"/>
<stop offset="1" stop-color="#644E28"/>
</linearGradient>
</defs>
</svg>
